# Blender 3.6.4
# www.blender.org
mtllib Goal_net.mtl
o Cube
v 2.000000 2.440000 -7.400000
v 2.000000 -2.440000 -7.400000
v 2.000000 2.440000 7.400000
v 2.000000 -2.440000 7.400000
v -2.000000 2.440000 -7.400000
v -2.000000 -2.440000 -7.400000
v -2.000000 2.440000 7.400000
v -2.000000 -2.440000 7.400000
v -2.000000 -2.440000 0.000000
v 0.000000 -2.440000 -7.400000
v 2.000000 0.000000 -7.400000
v -2.000000 0.000000 7.400000
v 2.000000 0.000000 7.400000
v -2.000000 0.000000 -7.400000
v 0.000000 2.440000 7.400000
v 2.000000 2.440000 0.000000
v 0.000000 -2.440000 7.400000
v -2.000000 2.440000 0.000000
v 0.000000 2.440000 -7.400000
v 0.000000 0.000000 -7.400000
v -2.000000 0.000000 0.000000
v 0.000000 0.000000 7.400000
v 0.000000 2.440000 0.000000
vn -0.0000 1.0000 -0.0000
vn -0.0000 -0.0000 1.0000
vn -1.0000 -0.0000 -0.0000
vn -0.0000 -0.0000 -1.0000
vt 0.389202 0.636423
vt 0.473944 0.552123
vt 0.714352 0.772750
vt 0.692452 0.867420
vt 0.832797 0.870030
vt 0.820895 0.755494
vt 0.579266 0.449512
vt 0.232732 0.316132
vt 0.269742 0.209486
vt 0.142992 0.191557
vt 0.147701 0.339542
vt 0.034083 0.376294
vt 0.000085 0.194202
vt 0.172392 0.017046
vt 0.013873 0.000085
vt 0.323128 0.060125
vt 0.682909 0.346535
vt 0.958292 0.712088
vt 0.985921 0.847296
vt 0.999915 0.982836
vt 0.834555 0.999908
vt 0.659907 0.988449
vt 0.309000 0.719903
s 0
usemtl Material
f 23/1/1 18/2/1 7/3/1 15/4/1
f 22/5/2 15/4/2 7/3/2 12/6/2
f 21/7/3 18/2/3 5/8/3 14/9/3
f 20/10/4 19/11/4 1/12/4 11/13/4
f 10/14/4 20/10/4 11/13/4 2/15/4
f 6/16/4 14/9/4 20/10/4 10/14/4
f 14/9/4 5/8/4 19/11/4 20/10/4
f 9/17/3 21/7/3 14/9/3 6/16/3
f 8/18/3 12/6/3 21/7/3 9/17/3
f 12/6/3 7/3/3 18/2/3 21/7/3
f 17/19/2 22/5/2 12/6/2 8/18/2
f 4/20/2 13/21/2 22/5/2 17/19/2
f 13/21/2 3/22/2 15/4/2 22/5/2
f 16/23/1 23/1/1 15/4/1 3/22/1
f 1/12/1 19/11/1 23/1/1 16/23/1
f 19/11/1 5/8/1 18/2/1 23/1/1
